<?xml version="1.0" encoding="UTF-8"?>
<!-- Generator: visioncortex VTracer 0.6.4 -->
<svg version="1.1" xmlns="http://www.w3.org/2000/svg" width="506" height="506">
<path d="M0 0 C0.73 0 1.46 0 2.21 0.01 C13.02 0.05 23.32 0.5 33.81 3.31 C34.45 3.48 35.09 3.65 35.75 3.82 C73.68 13.87 105.03 38.54 125.08 72.05 C133.7 87.04 138.63 103.4 141.81 120.31 C141.99 121.24 142.16 122.17 142.34 123.12 C144.97 140.96 143.79 161.06 138.81 178.31 C138.58 179.16 138.34 180 138.1 180.87 C129.12 212.27 110.41 239.32 83.81 258.31 C83.26 258.71 82.7 259.11 82.13 259.51 C51.23 281.29 13.38 289.52 -23.8 283.34 C-50.76 278.42 -75.04 267 -95.09 248.25 C-97.29 246.17 -97.29 246.17 -100.25 243.94 C-104.81 239.87 -108.44 235.12 -112.19 230.31 C-112.86 229.46 -113.53 228.6 -114.23 227.71 C-127.39 210.32 -135.78 190.61 -140.19 169.31 C-140.41 168.26 -140.64 167.2 -140.87 166.12 C-145.14 142.18 -142.48 117.05 -134.19 94.31 C-133.95 93.64 -133.7 92.96 -133.45 92.26 C-127.18 74.99 -117.72 59.72 -105.19 46.31 C-104.69 45.77 -104.19 45.23 -103.68 44.68 C-85.42 25.02 -62.75 11.87 -37 4.56 C-36.3 4.36 -35.6 4.16 -34.88 3.96 C-23.29 0.83 -11.95 -0.06 0 0 Z " fill="#1F92CD" transform="translate(240.1875,90.6875)"/>
<path d="M0 0 C1.05 0.3 2.1 0.6 3.19 0.91 C7.11 2.46 9.23 3.78 12 7 C14.34 14.62 13.48 23.12 13.32 30.98 C13.32 33.37 13.32 35.75 13.32 38.13 C13.32 44.39 13.26 50.65 13.17 56.91 C13.08 64.52 13.06 72.14 13.05 79.76 C13.03 85.68 13 91.6 12.93 97.53 C12.91 99.16 12.91 99.16 12.9 100.82 C12.88 102.85 12.86 104.88 12.82 106.91 C12.81 108.26 12.81 108.26 12.8 109.62 C12.79 110.4 12.78 111.18 12.77 111.98 C12.88 114.32 12.88 114.32 15 117 C17.59 117.86 19.34 118.18 22.01 118.32 C22.77 118.36 23.53 118.4 24.31 118.44 C25.09 118.48 25.88 118.52 26.69 118.56 C27.88 118.63 27.88 118.63 29.1 118.69 C31.07 118.8 33.03 118.9 35 119 C36.03 133.86 36.03 133.86 32.38 138.31 C28.82 141.89 24.48 142.89 19.56 143.27 C17.8 143.26 17.8 143.26 16 143.25 C14.82 143.26 13.65 143.26 12.44 143.27 C5.17 142.7 -0.48 139.86 -5.31 134.38 C-7 132 -7 132 -8 130 C-12.05 130.66 -15.23 132.79 -18.69 134.88 C-32.86 143.19 -49.29 145.48 -65.5 142.32 C-68.17 141.4 -70.53 140.35 -73 139 C-73.81 138.58 -74.61 138.15 -75.44 137.71 C-84.03 132.64 -88.44 124.9 -91.31 115.51 C-93.7 103.35 -92.99 90.67 -86.75 79.81 C-79.79 69.56 -70.2 63.87 -58.05 61.4 C-51.08 60.38 -44.16 59.74 -37.12 59.38 C-36.36 59.33 -35.6 59.29 -34.81 59.25 C-26.86 58.9 -18.98 59 -11 59 C-11 46.79 -11 34.58 -11 22 C-32.95 16.51 -53.36 14.27 -75 22 C-78.26 18.74 -77.93 9.58 -78.13 5.14 C-78.13 3.09 -78.07 1.04 -78 -1 C-75.71 -1.66 -73.42 -2.3 -71.12 -2.94 C-70.49 -3.12 -69.86 -3.3 -69.21 -3.49 C-47.8 -9.38 -20.66 -7.69 0 0 Z " fill="#F9FDFE" transform="translate(273,156)"/>
<path d="M0 0 C1.19 0 2.37 0.01 3.59 0.01 C6.48 0.03 9.36 0.04 12.25 0.06 C12.45 4.81 12.59 9.56 12.69 14.31 C12.73 15.93 12.78 17.54 12.85 19.16 C13.41 32.52 13.41 32.52 10.65 36.18 C8.54 37.55 6.65 38.34 4.25 39.06 C3.18 39.5 2.12 39.94 1.02 40.39 C0.04 40.69 -0.93 41 -1.94 41.31 C-3.41 41.78 -3.41 41.78 -4.92 42.27 C-10.75 43.91 -16.15 44.31 -22.19 44.38 C-23.02 44.4 -23.85 44.43 -24.71 44.46 C-30.26 44.52 -33.32 43.71 -37.75 40.06 C-38.33 39.61 -38.91 39.15 -39.5 38.69 C-44.33 32.41 -43.24 23.49 -42.75 16.06 C-41.97 11.37 -40.27 8.14 -36.5 5.19 C-25.95 -1.35 -11.95 -0.09 0 0 Z " fill="#2293CC" transform="translate(249.75,233.9375)"/>
<path d="M0 0 C5.2 -0.7 5.2 -0.7 8 0 C10.22 2.4 11.63 5.04 13 8 C13.2 7.42 13.4 6.85 13.6 6.25 C14.81 3.58 15.79 1.96 18 0 C22.76 -1.01 27.26 -1.15 32 0 C33.8 2.55 33.8 2.55 35 5 C35.66 5 36.32 5 37 5 C37.37 4.18 37.74 3.35 38.12 2.5 C40 0 40 0 41.97 -0.33 C43.98 -0.31 45.99 -0.16 48 0 C47.66 0.59 47.32 1.18 46.98 1.79 C46.31 2.98 46.31 2.98 45.62 4.19 C45.18 4.96 44.74 5.74 44.29 6.54 C43.86 7.35 43.44 8.16 43 9 C42.32 10.23 42.32 10.23 41.62 11.48 C40.68 14.09 40.68 14.09 42.34 16.61 C43.01 17.46 43.68 18.31 44.38 19.19 C48 23.86 48 23.86 48 26 C42.72 26.53 42.72 26.53 40 26 C37.5 23 37.5 23 36 20 C35.5 20.99 35.01 21.98 34.5 23 C32 26 32 26 29.95 26.4 C27.75 26.38 27.75 26.38 24 26 C25.12 22.64 26.56 20.23 28.75 17.5 C30.08 15.76 30.08 15.76 31 14 C30.28 9.79 27.43 6.48 25 3 C23.64 4.65 22.32 6.32 21 8 C19.92 9.27 19.92 9.27 18.81 10.56 C16.19 15.54 16.18 20.44 16 26 C13.69 26 11.38 26 9 26 C9.02 25.27 9.04 24.55 9.06 23.8 C8.89 15.62 6.58 10.92 1.71 4.4 C0 2 0 2 0 0 Z " fill="#484A4A" transform="translate(273,389)"/>
<path d="M0 0 C0.76 -0.04 1.53 -0.07 2.32 -0.11 C6.59 -0.18 8.27 0.01 11.8 2.68 C13.75 5.38 13.75 5.38 13.75 8.94 C12.82 12.14 11.98 13.95 9.75 16.38 C10.11 16.93 10.47 17.48 10.84 18.05 C11.31 18.78 11.77 19.5 12.25 20.25 C12.95 21.33 12.95 21.33 13.66 22.43 C14.75 24.38 14.75 24.38 14.75 26.38 C11.69 26.94 11.69 26.94 7.75 26.38 C5.64 24.21 4.01 21.95 2.33 19.44 C0.84 17.09 0.84 17.09 -2.25 16.38 C-2.25 19.68 -2.25 22.98 -2.25 26.38 C-4.56 26.38 -6.87 26.38 -9.25 26.38 C-9.28 22.23 -9.3 18.08 -9.31 13.94 C-9.32 12.75 -9.33 11.57 -9.34 10.35 C-9.34 9.22 -9.34 8.1 -9.35 6.94 C-9.35 5.9 -9.36 4.86 -9.36 3.78 C-9.12 -1.46 -4.15 0.08 0 0 Z M-2.25 6.38 C-2.25 8.02 -2.25 9.68 -2.25 11.38 C0.39 11.05 3.03 10.71 5.75 10.38 C6.08 9.06 6.41 7.74 6.75 6.38 C3.78 6.38 0.81 6.38 -2.25 6.38 Z " fill="#494A4B" transform="translate(260.25,388.625)"/>
<path d="M0 0 C6.6 0 13.2 0 20 0 C20 1.98 20 3.96 20 6 C15.71 6 11.42 6 7 6 C7 7.32 7 8.64 7 10 C10.96 10 14.92 10 19 10 C19 11.98 19 13.96 19 16 C15.37 16 11.74 16 8 16 C7.67 17.65 7.34 19.3 7 21 C11.62 21 16.24 21 21 21 C21 22.65 21 24.3 21 26 C14.07 26 7.14 26 0 26 C0 17.42 0 8.84 0 0 Z " fill="#47494B" transform="translate(228,389)"/>
<path d="M0 0 C2.31 0 4.62 0 7 0 C9.73 5.15 12.06 10.41 14.25 15.81 C14.52 16.47 14.79 17.13 15.07 17.81 C16.22 20.7 17 22.86 17 26 C14.69 26 12.38 26 10 26 C9.5 23.52 9.5 23.52 9 21 C5.7 21 2.4 21 -1 21 C-1.33 22.65 -1.66 24.3 -2 26 C-4.31 26 -6.62 26 -9 26 C-6.57 17.12 -3.29 8.59 0 0 Z M3 9 C2.67 10.98 2.34 12.96 2 15 C3.32 15 4.64 15 6 15 C5.34 13.02 4.68 11.04 4 9 C3.67 9 3.34 9 3 9 Z " fill="#484A4A" transform="translate(169,389)"/>
<path d="M0 0 C6.93 0 13.86 0 21 0 C21 1.98 21 3.96 21 6 C18.69 6 16.38 6 14 6 C14 12.6 14 19.2 14 26 C11.69 26 9.38 26 7 26 C7 19.4 7 12.8 7 6 C4.69 6 2.38 6 0 6 C0 4.02 0 2.04 0 0 Z " fill="#484949" transform="translate(205,389)"/>
<path d="M0 0 C1.98 0 3.96 0 6 0 C7 1 7 1 7.11 2.86 C7.11 3.65 7.1 4.44 7.1 5.25 C7.09 6.11 7.09 6.96 7.09 7.84 C7.08 8.74 7.07 9.64 7.06 10.56 C7.06 11.46 7.05 12.37 7.05 13.29 C7.04 15.53 7.02 17.76 7 20 C10.96 20.33 14.92 20.66 19 21 C19 22.65 19 24.3 19 26 C12.73 26 6.46 26 0 26 C0 17.42 0 8.84 0 0 Z " fill="#4A4A4B" transform="translate(188,389)"/>
<path d="M0 0 C0.66 0 1.32 0 2 0 C2 12.21 2 24.42 2 37 C-15.37 37.94 -15.37 37.94 -20.79 38.23 C-28.55 38.65 -36.28 39.13 -44 40 C-40.53 36.79 -37.79 36.53 -33.14 36.27 C-32.48 36.23 -31.82 36.19 -31.14 36.15 C-29.03 36.02 -26.92 35.92 -24.81 35.81 C-23.41 35.73 -22.01 35.65 -20.62 35.56 C-13.72 35.17 -6.91 35 0 35 C0 23.45 0 11.9 0 0 Z " fill="#4099C8" transform="translate(260,178)"/>
<path d="M0 0 C0.81 0 1.61 0.01 2.44 0.01 C8.28 0.1 13.8 0.66 19.44 2.25 C19.44 2.58 19.44 2.91 19.44 3.25 C17.13 3.58 14.82 3.91 12.44 4.25 C12.44 3.59 12.44 2.93 12.44 2.25 C4.52 2.25 -3.4 2.25 -11.56 2.25 C-7.7 -0.33 -4.48 -0.05 0 0 Z " fill="#3493C3" transform="translate(229.5625,171.75)"/>
<path d="M0 0 C8.25 0 16.5 0 25 0 C24.01 1.49 24.01 1.49 23 3 C20.88 3.28 20.88 3.28 18.28 3.14 C17.35 3.1 16.42 3.05 15.46 3.01 C14.48 2.94 13.51 2.88 12.5 2.81 C11.52 2.77 10.55 2.72 9.54 2.68 C2.27 2.27 2.27 2.27 0 0 Z " fill="#3392C0" transform="translate(211,299)"/>
<path d="M0 0 C-10.26 3.44 -20.3 3.55 -31 3 C-31.66 2.67 -32.32 2.34 -33 2 C-33 1.34 -33 0.68 -33 0 C-31.68 0 -30.36 0 -29 0 C-29 0.66 -29 1.32 -29 2 C-18.29 1.64 -18.29 1.64 -7.75 -0.12 C-4.24 -0.94 -3.22 -1.01 0 0 Z " fill="#3693C1" transform="translate(249,275)"/>
<path d="M0 0 C0.33 0 0.66 0 1 0 C3.3 15.74 3.3 15.74 3 23 C-1.28 16.58 -1.36 8.51 -1 1 C-0.67 0.67 -0.34 0.34 0 0 Z " fill="#3D96C3" transform="translate(194,155)"/>
<path d="M0 0 C5 1.67 10 3.33 15 5 C15 5.33 15 5.66 15 6 C8.25 7.12 8.25 7.12 6 6 C6 5.34 6 4.68 6 4 C4.02 3.34 2.04 2.68 0 2 C0 1.34 0 0.68 0 0 Z " fill="#2C8EC0" transform="translate(196,293)"/>
<path d="M0 0 C0.33 0 0.66 0 1 0 C1.05 2.21 1.09 4.42 1.12 6.62 C1.15 7.85 1.17 9.08 1.2 10.35 C1 13.97 0.43 16.68 -1 20 C-1.66 20.33 -2.32 20.66 -3 21 C-2.87 20.41 -2.73 19.81 -2.6 19.2 C-1.24 12.81 -0.47 6.51 0 0 Z " fill="#2F8EC0" transform="translate(309,274)"/>
<path d="M0 0 C-0.99 0.66 -1.98 1.32 -3 2 C-4.22 5.56 -4.22 5.56 -5 9 C-5.33 9 -5.66 9 -6 9 C-6 6.03 -6 3.06 -6 0 C-3.51 -1.25 -2.59 -0.78 0 0 Z " fill="#CFF3FC" transform="translate(201,155)"/>
<path d="M0 0 C0 4.25 -1.82 6.39 -4 10 C-4.66 10 -5.32 10 -6 10 C-4.79 5.57 -3.48 3.02 0 0 Z " fill="#D6F4FD" transform="translate(191,230)"/>
</svg>
